<svg width="56" height="56" viewBox="0 0 56 56" fill="none" xmlns="http://www.w3.org/2000/svg">
<path d="M20.9487 45.8662C8.12821 49.4331 8.12821 39.9214 3 38.7325M38.8974 53V43.7975C38.9936 42.6636 38.8284 41.5237 38.4129 40.4536C37.9973 39.3835 37.3408 38.4077 36.4872 37.5911C44.5385 36.7588 53 33.9291 53 20.9457C52.9993 17.6257 51.6223 14.433 49.1538 12.0285C50.3227 9.12385 50.2401 5.91329 48.9231 3.06371C48.9231 3.06371 45.8974 2.23144 38.8974 6.58303C33.0205 5.10592 26.8256 5.10592 20.9487 6.58303C13.9487 2.23144 10.9231 3.06371 10.9231 3.06371C9.60609 5.91329 9.52345 9.12385 10.6923 12.0285C8.20545 14.4508 6.82698 17.6724 6.84615 21.017C6.84615 33.9053 15.3077 36.735 23.359 37.6624C22.5154 38.4708 21.8648 39.4349 21.4495 40.492C21.0342 41.549 20.8636 42.6752 20.9487 43.7975V53" stroke="#4E4646" stroke-width="5" stroke-linecap="round" stroke-linejoin="round"/>
</svg>
