<svg width="56" height="56" viewBox="0 0 56 56" fill="none" xmlns="http://www.w3.org/2000/svg">
<path d="M38 18.7895C41.9782 18.7895 45.7936 20.453 48.6066 23.4141C51.4197 26.3752 53 30.3913 53 34.5789V53H43V34.5789C43 33.1831 42.4732 31.8444 41.5355 30.8573C40.5979 29.8703 39.3261 29.3158 38 29.3158C36.6739 29.3158 35.4021 29.8703 34.4645 30.8573C33.5268 31.8444 33 33.1831 33 34.5789V53H23V34.5789C23 30.3913 24.5804 26.3752 27.3934 23.4141C30.2064 20.453 34.0218 18.7895 38 18.7895Z" stroke="#4E4646" stroke-width="5" stroke-linecap="round" stroke-linejoin="round"/>
<path d="M13 21.4211H3V53H13V21.4211Z" stroke="#4E4646" stroke-width="5" stroke-linecap="round" stroke-linejoin="round"/>
<path d="M8 13.5263C10.7614 13.5263 13 11.1699 13 8.26316C13 5.3564 10.7614 3 8 3C5.23858 3 3 5.3564 3 8.26316C3 11.1699 5.23858 13.5263 8 13.5263Z" stroke="#4E4646" stroke-width="5" stroke-linecap="round" stroke-linejoin="round"/>
</svg>
